<?xml version="1.0" standalone="no"?>
<!DOCTYPE svg PUBLIC "-//W3C//DTD SVG 20010904//EN"
 "http://www.w3.org/TR/2001/REC-SVG-20010904/DTD/svg10.dtd">
<svg version="1.0" xmlns="http://www.w3.org/2000/svg"
 width="80.000000pt" height="80.000000pt" viewBox="0 0 80.000000 80.000000"
 preserveAspectRatio="xMidYMid meet">
<metadata>
Created by potrace 1.14, written by Peter Selinger 2001-2017
</metadata>
<g transform="translate(0.000000,80.000000) scale(0.100000,-0.100000)"
fill="#000000" stroke="none">
<path d="M502 785 c-8 -9 -22 -12 -40 -9 -24 5 -34 0 -55 -26 -15 -17 -27 -37
-27 -43 0 -6 27 -39 60 -72 l60 -60 -138 -138 -137 -137 -60 60 c-33 33 -67
60 -75 60 -27 0 -73 -56 -67 -80 3 -12 -2 -34 -11 -50 l-17 -29 48 -49 47 -48
-25 -24 c-32 -30 -31 -39 11 -74 l35 -29 27 26 26 27 49 -48 48 -47 29 17 c16
9 38 14 50 11 24 -6 80 40 80 67 0 8 -27 42 -60 75 l-60 60 137 137 138 138
60 -60 c33 -33 67 -60 76 -60 8 0 28 13 43 29 22 23 27 35 22 56 -4 17 -1 31
9 41 23 24 19 36 -30 84 l-45 44 26 28 27 27 -29 35 c-35 42 -44 43 -74 11
l-24 -25 -46 45 c-48 47 -67 54 -88 30z m155 -127 c109 -110 121 -125 109
-141 -8 -10 -20 -15 -30 -11 -22 9 -20 -5 6 -33 l21 -23 -27 -27 -27 -27 -157
158 -157 157 29 25 28 25 24 -22 c22 -20 29 -19 25 5 -2 9 18 36 28 36 3 0 61
-55 128 -122z m58 52 c17 -19 17 -22 3 -37 -30 -29 -74 10 -48 42 16 20 23 19
45 -5z m-165 -192 c0 -12 -51 -68 -62 -68 -11 0 -38 25 -38 35 0 4 15 22 33
40 29 30 33 32 50 18 9 -9 17 -20 17 -25z m-128 -138 l-47 -48 -23 21 -22 21
47 47 48 48 22 -21 23 -21 -48 -47z m-172 -135 l155 -155 -28 -26 -28 -26 -23
21 c-26 24 -41 27 -32 6 3 -8 -2 -22 -11 -31 -15 -14 -26 -6 -139 107 -106
105 -121 125 -113 142 6 10 16 16 24 13 23 -9 26 7 4 30 l-21 22 23 26 c12 14
25 26 28 26 4 0 76 -70 161 -155z m86 91 c20 -20 18 -25 -20 -62 -32 -31 -35
-32 -50 -15 -21 23 -21 26 12 61 31 34 38 36 58 16z m-205 -212 c17 -15 17
-17 -2 -37 l-19 -21 -22 21 c-18 18 -19 24 -8 37 16 20 29 20 51 0z"/>
<path d="M510 710 c0 -5 5 -10 10 -10 6 0 10 5 10 10 0 6 -4 10 -10 10 -5 0
-10 -4 -10 -10z"/>
<path d="M540 680 c0 -5 5 -10 10 -10 6 0 10 5 10 10 0 6 -4 10 -10 10 -5 0
-10 -4 -10 -10z"/>
<path d="M570 650 c0 -5 5 -10 10 -10 6 0 10 5 10 10 0 6 -4 10 -10 10 -5 0
-10 -4 -10 -10z"/>
<path d="M600 620 c0 -5 5 -10 10 -10 6 0 10 5 10 10 0 6 -4 10 -10 10 -5 0
-10 -4 -10 -10z"/>
<path d="M630 590 c0 -5 5 -10 10 -10 6 0 10 5 10 10 0 6 -4 10 -10 10 -5 0
-10 -4 -10 -10z"/>
<path d="M660 560 c0 -5 5 -10 10 -10 6 0 10 5 10 10 0 6 -4 10 -10 10 -5 0
-10 -4 -10 -10z"/>
<path d="M690 530 c0 -5 5 -10 10 -10 6 0 10 5 10 10 0 6 -4 10 -10 10 -5 0
-10 -4 -10 -10z"/>
<path d="M80 280 c0 -5 5 -10 10 -10 6 0 10 5 10 10 0 6 -4 10 -10 10 -5 0
-10 -4 -10 -10z"/>
<path d="M110 250 c0 -5 5 -10 10 -10 6 0 10 5 10 10 0 6 -4 10 -10 10 -5 0
-10 -4 -10 -10z"/>
<path d="M140 220 c0 -5 5 -10 10 -10 6 0 10 5 10 10 0 6 -4 10 -10 10 -5 0
-10 -4 -10 -10z"/>
<path d="M170 190 c0 -5 5 -10 10 -10 6 0 10 5 10 10 0 6 -4 10 -10 10 -5 0
-10 -4 -10 -10z"/>
<path d="M200 160 c0 -5 5 -10 10 -10 6 0 10 5 10 10 0 6 -4 10 -10 10 -5 0
-10 -4 -10 -10z"/>
<path d="M230 130 c0 -5 5 -10 10 -10 6 0 10 5 10 10 0 6 -4 10 -10 10 -5 0
-10 -4 -10 -10z"/>
<path d="M260 100 c0 -5 5 -10 10 -10 6 0 10 5 10 10 0 6 -4 10 -10 10 -5 0
-10 -4 -10 -10z"/>
</g>
</svg>
